Coordinates
version=1
nRows=17
nColumns=34
inDegrees=yes

Units are S.I. units (second, meters, Newtons, ...)
If the header above contains a line with 'inDegrees', this indicates whether rotational values are in degrees (yes) or radians (no).

endheader
time	pelvis_tilt	pelvis_list	pelvis_rotation	pelvis_tx	pelvis_ty	pelvis_tz	hip_flexion_r	hip_adduction_r	hip_rotation_r	knee_angle_r	ankle_angle_r	subtalar_angle_r	mtp_angle_r	hip_flexion_l	hip_adduction_l	hip_rotation_l	knee_angle_l	ankle_angle_l	subtalar_angle_l	mtp_angle_l	lumbar_extension	lumbar_bending	lumbar_rotation	arm_flex_r	arm_add_r	arm_rot_r	elbow_flex_r	pro_sup_r	arm_flex_l	arm_add_l	arm_rot_l	elbow_flex_l	pro_sup_l
      1.05000000	     -0.24026827	     -0.53661779	      2.81694199	      1.63996099	      0.85596395	     -0.04814188	     -3.17528599	     -4.10503039	     -7.35935125	      1.73056626	      3.00386237	    -15.10724394	      0.00000000	     -1.45049229	     -5.79880889	     -4.32335511	      2.21028724	      4.45793773	     -2.79428256	      0.00000000	     -7.10912200	      1.65534143	     -0.27756661	      9.86338923	     -9.59062098	     40.04293970	     78.76470048	     87.14659443	     10.69868504	     -6.28285231	     32.36412312	     57.43318306	     82.80599078
      1.06666670	     -0.23925875	     -0.53065103	      2.81628991	      1.63980989	      0.85483886	     -0.04841769	     -3.17735962	     -4.09880475	     -7.35891680	      1.73369931	      3.00233861	    -15.10652343	      0.00000000	     -1.45140856	     -5.79807576	     -4.32366132	      2.21156289	      4.45701839	     -2.79398183	      0.00000000	     -7.10989090	      1.65562830	     -0.27741955	      9.86055865	     -9.59016891	     40.04386000	     78.76394902	     87.14625171	     10.69749855	     -6.28342424	     32.36463640	     57.43275256	     82.80614378
      1.08333330	     -0.17647551	     -0.52946855	      2.87665994	      1.63966896	      0.85423386	     -0.04905188	     -3.19427079	     -4.12435513	     -7.33430634	      1.90083825	      2.88753445	    -15.07506996	      0.00000000	     -1.46698020	     -5.78218057	     -4.34569258	      2.29709904	      4.40147317	     -2.78671989	      0.00000000	     -7.11722221	      1.72374440	     -0.29815276	      9.62034427	     -9.57882882	     40.11765868	     78.70693746	     87.11753153	     10.62971949	     -6.28290346	     32.41401775	     57.42922440	     82.81983176
      1.10000000	     -0.17729073	     -0.53055919	      2.87524516	      1.63959615	      0.85418311	     -0.04912813	     -3.19478709	     -4.12503044	     -7.33486571	      1.90101064	      2.88724618	    -15.07538868	      0.00000000	     -1.46719478	     -5.78225088	     -4.34565427	      2.29728856	      4.40128893	     -2.78664201	      0.00000000	     -7.11706678	      1.72358416	     -0.29840192	      9.61969464	     -9.57885100	     40.11775733	     78.70670283	     87.11727764	     10.62974014	     -6.28274616	     32.41435986	     57.42937240	     82.81993973
      1.11666670	     -0.17688963	     -0.53991262	      2.87474914	      1.63960660	      0.85486898	     -0.04892991	     -3.19373993	     -4.13087244	     -7.33559985	      1.90028255	      2.88685309	    -15.07598766	      0.00000000	     -1.46651200	     -5.77946067	     -4.34562793	      2.29744783	      4.40112716	     -2.78665785	      0.00000000	     -7.11608392	      1.72386359	     -0.29928948	      9.61867019	     -9.57934425	     40.11777484	     78.70640577	     87.11689353	     10.62997313	     -6.28190755	     32.41500004	     57.42993723	     82.82011423
      1.13333330	     -0.17568780	     -0.54849917	      2.87501451	      1.63966994	      0.85576583	     -0.04854432	     -3.19167860	     -4.13651164	     -7.33624814	      1.89916322	      2.88634418	    -15.07648524	      0.00000000	     -1.46585474	     -5.77608864	     -4.34563609	      2.29780879	      4.40091880	     -2.78675018	      0.00000000	     -7.11479499	      1.72465804	     -0.30068792	      9.61756980	     -9.58039462	     40.11763375	     78.70602776	     87.11650578	     10.63022802	     -6.28051030	     32.41579943	     57.43070318	     82.82030087
      1.15000000	     -0.15718465	     -0.53422374	      2.80783046	      1.63968109	      0.85648674	     -0.04808690	     -3.18128980	     -4.15118422	     -7.36408400	      1.89729217	      2.84792297	    -15.08484415	      0.00000000	     -1.48328294	     -5.75919498	     -4.35009141	      2.33117152	      4.37568763	     -2.78630844	      0.00000000	     -7.08537748	      1.73949646	     -0.36096394	      9.55605942	     -9.62710995	     40.11332740	     78.67596720	     87.09779126	     10.62967791	     -6.22753582	     32.45642824	     57.45892680	     82.82940026
      1.16666670	     -0.15755977	     -0.53236164	      2.81029519	      1.63967891	      0.85696042	     -0.04792931	     -3.17977567	     -4.15151000	     -7.36404489	      1.89643239	      2.84702656	    -15.08472589	      0.00000000	     -1.48362482	     -5.76030601	     -4.35068215	      2.33100792	      4.37545058	     -2.78670172	      0.00000000	     -7.08492542	      1.73988972	     -0.36121489	      9.55500164	     -9.62782818	     40.11330638	     78.67530797	     87.09733990	     10.62894801	     -6.22686204	     32.45740187	     57.45935971	     82.82961824
      1.18333330	     -0.14872136	     -0.51671072	      2.81697542	      1.63929777	      0.85708616	     -0.04768880	     -3.16978354	     -4.14333504	     -7.36402260	      1.88672790	      2.84076284	    -15.08291420	      0.00000000	     -1.48314908	     -5.76642205	     -4.35395912	      2.32598134	      4.37309634	     -2.78815005	      0.00000000	     -7.08564641	      1.73944192	     -0.36566576	      9.54071845	     -9.63202279	     40.11557357	     78.66823158	     87.09419813	     10.62411529	     -6.22245904	     32.46488632	     57.46214542	     82.83124323
      1.20000000	     -0.18862850	     -0.53888664	      2.80109450	      1.63889602	      0.85730197	     -0.04765386	     -3.15293710	     -4.11001450	     -7.36772072	      1.78378715	      2.78057896	    -15.06265214	      0.00000000	     -1.47840958	     -5.78997317	     -4.37515523	      2.25518203	      4.34476591	     -2.79257853	      0.00000000	     -7.12898371	      1.71524792	     -0.43198029	      9.35198938	     -9.65703098	     40.15732265	     78.57519581	     87.05865900	     10.61977047	     -6.18656306	     32.54227924	     57.49773995	     82.84981656
      1.21666670	     -0.17306486	     -0.53274298	      2.80438254	      1.63820520	      0.85718843	     -0.04765016	     -3.14431261	     -4.10560913	     -7.36780424	      1.77286989	      2.77821808	    -15.06128272	      0.00000000	     -1.47661213	     -5.79100886	     -4.37559551	      2.24908275	      4.34329171	     -2.79220664	      0.00000000	     -7.12312130	      1.71638431	     -0.43040146	      9.34696374	     -9.65511823	     40.15861695	     78.57179186	     87.05632067	     10.62076204	     -6.18787956	     32.54581270	     57.49992006	     82.85095603
      1.23333330	     -0.16921091	     -0.52939914	      2.80348391	      1.63802414	      0.85674176	     -0.04772945	     -3.14173248	     -4.10303299	     -7.36803463	      1.76989769	      2.77790095	    -15.06100088	      0.00000000	     -1.47678753	     -5.79168323	     -4.37564895	      2.24787080	      4.34291512	     -2.79200629	      0.00000000	     -7.12263641	      1.71634069	     -0.43091737	      9.34576421	     -9.65493062	     40.15882001	     78.57097153	     87.05586277	     10.62173253	     -6.18791459	     32.54645049	     57.50040271	     82.85117755
      1.25000000	     -0.15972508	     -0.52597316	      2.80151660	      1.63803606	      0.85611930	     -0.04779692	     -3.13706522	     -4.10044919	     -7.36831605	      1.76601816	      2.77771105	    -15.06073797	      0.00000000	     -1.47418041	     -5.79236682	     -4.37561986	      2.24559530	      4.34253353	     -2.79172874	      0.00000000	     -7.12254498	      1.71612099	     -0.43203949	      9.34500111	     -9.65499592	     40.15873988	     78.57028330	     87.05545095	     10.62328082	     -6.18768498	     32.54695429	     57.50091695	     82.85136851
      1.26666670	     -0.15143613	     -0.52445568	      2.79916633	      1.63809115	      0.85557287	     -0.04774904	     -3.13309372	     -4.09962513	     -7.36864526	      1.76232098	      2.77759167	    -15.06052784	      0.00000000	     -1.47157652	     -5.79345931	     -4.37556215	      2.24351198	      4.34211995	     -2.79142964	      0.00000000	     -7.12241898	      1.71583532	     -0.43377111	      9.34476510	     -9.65531958	     40.15828663	     78.56976922	     87.05501945	     10.62541471	     -6.18713866	     32.54743890	     57.50157164	     82.85155921
      1.28333330	     -0.19764966	     -0.56534293	      2.77533595	      1.63793405	      0.85512412	     -0.04750832	     -3.12721255	     -4.03532926	     -7.34413167	      1.58535967	      2.73449239	    -15.00322876	      0.00000000	     -1.43998556	     -5.86287457	     -4.42449735	      2.15576159	      4.27117370	     -2.76778841	      0.00000000	     -7.07030609	      1.70185968	     -0.54097267	      9.43011448	     -9.63236755	     40.04541790	     78.53930323	     86.96810557	     10.84513094	     -6.20915609	     32.64911600	     57.57353499	     82.88856025
      1.30000000	     -0.19861104	     -0.56389188	      2.77478622	      1.63789217	      0.85518863	     -0.04751904	     -3.12735687	     -4.03603240	     -7.34420804	      1.58530115	      2.73444547	    -15.00319594	      0.00000000	     -1.44098197	     -5.86494845	     -4.42428405	      2.15640258	      4.27095230	     -2.76760801	      0.00000000	     -7.06997852	      1.70206119	     -0.54122454	      9.43006546	     -9.63233157	     40.04512653	     78.53928608	     86.96783724	     10.84502347	     -6.20921349	     32.64960301	     57.57359913	     82.88868232
      1.31666670	     -0.19769193	     -0.56119643	      2.77404334	      1.63793827	      0.85551675	     -0.04753598	     -3.12614339	     -4.03867268	     -7.34414923	      1.58460605	      2.73447936	    -15.00318448	      0.00000000	     -1.44131123	     -5.87002918	     -4.42390408	      2.15674901	      4.27072524	     -2.76740537	      0.00000000	     -7.06916246	      1.70238787	     -0.54179440	      9.43014285	     -9.63231073	     40.04466128	     78.53941738	     86.96751526	     10.84510800	     -6.20915615	     32.65019808	     57.57378345	     82.88882890
